<svg version="1.1" id="Layer_1" xmlns="http://www.w3.org/2000/svg" xmlns:xlink="http://www.w3.org/1999/xlink" x="0px" y="0px"
	 width="100%" viewBox="0 0 140 136" enable-background="new 0 0 140 136" xml:space="preserve">
<path fill="#010101" opacity="1.000000" stroke="none" 
	d="
M129.000000,1.000000 
	C132.991684,1.000000 136.983383,1.000000 140.981293,0.999998 
	C140.987534,46.230839 140.987534,91.461678 140.987534,137.000000 
	C120.313454,137.000000 99.625389,137.000000 78.425972,136.736755 
	C79.412163,134.226242 81.220657,132.124115 82.349930,129.704941 
	C85.980186,121.928055 88.693970,113.642014 93.021698,106.294800 
	C97.414169,98.837685 95.892052,89.109283 102.752419,82.816864 
	C103.028671,82.563492 102.778061,81.810707 102.959305,81.366676 
	C104.223999,78.268311 105.029678,74.817154 106.955162,72.192711 
	C109.841423,68.258743 111.933067,64.707054 108.357758,59.985565 
	C108.452385,59.414635 108.638794,59.159523 109.268158,58.893761 
	C111.067436,55.879314 112.525314,52.949722 114.247635,49.812664 
	C116.361305,47.163334 118.377243,44.819580 119.920227,42.197506 
	C120.231918,41.667828 118.753448,40.084705 117.954620,38.804916 
	C117.620110,38.369034 117.386528,38.167328 117.110504,37.756405 
	C117.121834,37.151043 117.130844,36.806732 117.394577,36.188274 
	C117.887863,34.952621 118.126442,33.991116 118.274704,33.064644 
	C118.184395,33.099678 118.256851,33.279358 118.500717,33.119247 
	C119.141747,32.298313 119.538910,31.637486 120.260376,30.868584 
	C124.624031,24.857735 128.454132,18.872032 128.534027,11.083498 
	C128.982498,8.793317 129.192017,6.724994 129.307541,4.428014 
	C129.213547,4.199357 129.027710,3.739440 129.023926,3.397014 
	C129.013412,2.369725 129.006714,1.684863 129.000000,1.000000 
z"/>
<path fill="#010001" opacity="1.000000" stroke="none" 
	d="
M63.000000,137.000000 
	C42.384243,137.000000 21.768488,137.000000 1.000000,137.000000 
	C1.000000,98.645897 1.000000,60.291607 1.333244,21.368599 
	C4.667236,17.915205 7.923246,15.988752 12.243118,18.307636 
	C12.311545,19.052485 12.361678,19.476950 12.100444,20.107609 
	C11.681776,22.500870 10.653680,25.370285 11.661839,26.730745 
	C13.664652,29.433441 13.482772,31.549650 12.536506,34.461765 
	C9.795825,42.896149 10.160089,43.238140 19.268963,43.664013 
	C19.552940,43.677292 19.825272,43.939686 20.103033,44.085941 
	C19.814453,44.488171 19.525873,44.890396 19.237293,45.292622 
	C20.491568,46.194927 21.745844,47.097237 23.283482,48.183144 
	C24.654390,48.588039 25.741936,48.809334 26.902863,49.426540 
	C27.076473,51.159088 27.176701,52.495731 27.032890,54.061783 
	C26.372093,55.470291 25.955334,56.649387 25.171034,58.868332 
	C27.625162,57.918308 28.809134,57.459976 30.295141,56.986000 
	C30.794388,56.928383 30.991600,56.886414 31.350130,57.088997 
	C31.674316,57.893898 31.837181,58.454239 31.801733,59.202980 
	C31.460732,59.917789 31.318045,60.444195 30.880383,61.090294 
	C30.265894,62.087032 29.946379,62.964077 29.626865,63.841125 
	C30.477724,63.850292 31.328583,63.859459 32.412224,64.024384 
	C33.306370,64.488983 33.967731,64.797813 34.782455,65.372093 
	C35.024834,66.034920 35.113846,66.432312 35.065872,67.050400 
	C35.286678,67.838524 35.644474,68.405937 36.165382,69.184296 
	C36.437187,69.730988 36.545883,70.066742 36.538681,70.730103 
	C37.022141,72.712151 37.621494,74.366585 38.261410,76.370163 
	C38.843487,78.173424 39.385006,79.627548 39.932446,81.460716 
	C43.524384,90.756447 47.020561,99.710869 50.742851,108.570297 
	C52.134136,111.881706 54.052578,114.971634 55.891769,118.501488 
	C57.103077,122.212860 58.153267,125.585289 58.999889,129.230988 
	C56.700043,133.964249 62.128353,134.204422 63.000000,137.000000 
z"/>
<path fill="#010101" opacity="1.000000" stroke="none" 
	d="
M61.000000,1.000000 
	C69.354233,1.000000 77.708466,1.000000 86.609772,1.364005 
	C87.510490,2.919801 87.864128,4.111592 88.189545,5.654920 
	C87.289635,7.741501 86.417931,9.476547 85.185074,11.178885 
	C83.964584,11.307538 83.105255,11.468900 82.245918,11.630261 
	C82.250603,11.896834 82.255280,12.163406 82.259964,12.429979 
	C83.292488,12.592839 84.325012,12.755699 85.512833,13.219640 
	C86.038132,14.070104 86.408142,14.619487 86.713516,15.467312 
	C86.335342,16.277487 86.021805,16.789221 85.262520,17.234270 
	C84.218155,17.120245 83.619537,17.072903 82.669769,17.115980 
	C80.214676,18.058569 78.110733,18.910738 77.170448,19.291588 
	C76.137169,25.018562 75.086998,29.919266 74.494690,34.874699 
	C74.371780,35.903057 75.947586,37.134453 76.678421,38.640720 
	C76.165710,40.687332 75.715088,42.365501 74.918785,43.917137 
	C70.424759,38.799934 68.666756,33.208328 69.822258,26.680061 
	C70.016937,25.580202 69.095764,23.961769 68.208099,23.054670 
	C65.995804,20.793936 63.505806,18.804964 60.751766,16.375656 
	C60.409245,16.575220 59.139927,17.314762 57.708748,17.890362 
	C57.341469,17.495930 57.157562,17.249397 57.162560,16.648651 
	C58.553307,11.206989 59.776653,6.103495 61.000000,1.000000 
z"/>
<path fill="#03161A" opacity="1.000000" stroke="none" 
	d="
M108.348007,60.227177 
	C111.933067,64.707054 109.841423,68.258743 106.955162,72.192711 
	C105.029678,74.817154 104.223999,78.268311 102.959305,81.366676 
	C102.778061,81.810707 103.028671,82.563492 102.752419,82.816864 
	C95.892052,89.109283 97.414169,98.837685 93.021698,106.294800 
	C88.693970,113.642014 85.980186,121.928055 82.349930,129.704941 
	C81.220657,132.124115 79.412163,134.226242 77.957314,136.736755 
	C74.307091,137.000000 70.614182,137.000000 66.554840,136.697235 
	C67.138115,135.265320 68.087837,134.136154 69.394745,133.115265 
	C71.145958,131.865692 72.539970,130.507843 74.212250,129.348892 
	C75.482841,130.673416 76.475159,131.799026 77.467476,132.924652 
	C78.443420,131.651794 79.419365,130.378937 80.589386,128.899170 
	C80.894058,128.143875 81.004646,127.595497 81.358528,126.794891 
	C83.151085,122.391632 84.700348,118.240608 86.438622,113.874046 
	C86.758217,113.108162 86.888794,112.557808 87.276138,111.754135 
	C88.116928,109.631287 88.700966,107.761765 89.310226,105.803253 
	C89.335449,105.714256 89.158112,105.661545 89.440979,105.404510 
	C90.128319,103.772949 90.532791,102.398430 91.032578,100.716911 
	C91.207123,99.988846 91.286346,99.567780 91.631897,99.008820 
	C91.990463,98.292862 92.082718,97.714798 92.140656,97.123787 
	C92.106331,97.110832 92.082115,97.180084 92.339264,97.086548 
	C92.708115,96.671822 92.819817,96.350647 93.059158,95.664825 
	C98.240532,83.609192 103.294273,71.918182 108.348007,60.227177 
z"/>
<path fill="#060709" opacity="1.000000" stroke="none" 
	d="
M7.000000,1.000000 
	C21.354227,1.000000 35.708454,1.000000 50.530422,1.407002 
	C50.977631,2.899060 50.957100,3.984115 50.493340,5.036345 
	C47.960827,5.015133 45.871544,5.026747 43.332886,4.961396 
	C35.040424,4.808664 27.197342,4.732896 19.155142,4.342303 
	C15.742519,4.374342 12.529016,4.721206 8.985828,4.923017 
	C8.104097,3.518642 7.552049,2.259321 7.000000,1.000000 
z"/>
<path fill="#050203" opacity="1.000000" stroke="none" 
	d="
M6.500528,1.000000 
	C7.552049,2.259321 8.104097,3.518642 8.969385,5.281291 
	C10.263357,9.852163 11.244090,13.919707 12.224823,17.987251 
	C7.923246,15.988752 4.667236,17.915205 1.333244,20.899942 
	C1.000000,14.333218 1.000000,7.666436 1.000000,1.000000 
	C2.732945,1.000000 4.367001,1.000000 6.500528,1.000000 
z"/>
<path fill="#0B0205" opacity="1.000000" stroke="none" 
	d="
M128.531342,1.000000 
	C129.006714,1.684863 129.013412,2.369725 128.693939,3.387124 
	C126.896873,4.065010 125.425995,4.410360 123.652153,4.812636 
	C122.947769,4.904718 122.546356,4.939876 121.669769,4.921239 
	C113.184074,4.966316 105.173538,5.065186 97.170364,5.027774 
	C97.177727,4.891493 96.940704,4.756118 96.972595,4.503992 
	C96.955887,3.918616 96.907288,3.585366 96.770424,2.963791 
	C96.454765,2.116977 96.227386,1.558489 96.000000,1.000000 
	C106.687561,1.000000 117.375122,1.000000 128.531342,1.000000 
z"/>
<path fill="#080205" opacity="1.000000" stroke="none" 
	d="
M50.936565,5.069170 
	C50.957100,3.984115 50.977631,2.899060 50.999081,1.407002 
	C54.030594,1.000000 57.061188,1.000000 60.545891,1.000000 
	C59.776653,6.103495 58.553307,11.206989 56.918274,16.518227 
	C56.011097,16.480064 55.515610,16.234161 54.820831,15.742655 
	C54.401836,14.692238 54.182129,13.887422 53.956108,12.876702 
	C53.885105,12.388769 53.732590,12.167206 53.344402,11.693340 
	C53.124172,10.927307 53.051788,10.474041 53.141403,9.762859 
	C52.491070,8.047038 51.678730,6.589133 50.867718,5.097364 
	C50.869041,5.063501 50.936565,5.069170 50.936565,5.069170 
z"/>
<path fill="#280719" opacity="1.000000" stroke="none" 
	d="
M69.037552,133.006989 
	C68.087837,134.136154 67.138115,135.265320 66.094200,136.697235 
	C65.250000,137.000000 64.500000,137.000000 63.375000,137.000000 
	C62.128353,134.204422 56.700043,133.964249 59.293537,129.367935 
	C60.938122,130.745407 62.085484,132.259186 63.238453,133.780365 
	C64.716560,132.614899 65.865944,131.708618 67.317291,130.914978 
	C68.092026,131.687408 68.564789,132.347198 69.037552,133.006989 
z"/>
<path fill="#0F0211" opacity="1.000000" stroke="none" 
	d="
M95.550049,1.000000 
	C96.227386,1.558489 96.454765,2.116977 96.523224,3.024024 
	C95.858101,3.790809 95.351898,4.209036 94.465652,4.682400 
	C93.065186,4.828316 92.044746,4.919095 90.669853,4.956848 
	C89.616188,5.037009 88.916977,5.170196 88.217773,5.303383 
	C87.864128,4.111592 87.510490,2.919801 87.078423,1.364005 
	C89.700035,1.000000 92.400063,1.000000 95.550049,1.000000 
z"/>
<path fill="#0BB6B0" opacity="1.000000" stroke="none" 
	d="
M87.019379,112.007462 
	C86.888794,112.557808 86.758217,113.108162 86.162872,114.083389 
	C84.170486,118.687881 82.642860,122.867500 81.115227,127.047127 
	C81.004646,127.595497 80.894058,128.143875 80.239456,128.987366 
	C77.456490,129.894135 76.046997,129.447525 76.357704,126.717934 
	C76.526237,125.237282 76.637665,123.750130 76.706253,122.181343 
	C76.637657,122.096771 76.803673,121.955795 77.140411,121.803841 
	C77.780266,120.287788 78.083382,118.923698 78.446426,117.639534 
	C78.506348,117.719467 78.345482,117.600960 78.684494,117.449020 
	C79.951637,114.640068 80.879768,111.983063 81.758087,109.199257 
	C81.708275,109.072456 81.948692,108.944229 82.116264,108.894188 
	C82.394806,108.749901 82.607346,108.644073 82.598160,108.563538 
	C82.567780,108.297165 82.457390,108.039909 82.403427,107.442444 
	C82.655121,106.721039 82.881088,106.336357 83.440414,105.847733 
	C84.793915,102.768486 85.814064,99.793190 86.847198,96.850845 
	C86.860184,96.883797 86.789513,96.888550 87.043945,96.756531 
	C87.423943,95.715187 87.549522,94.805855 87.860443,93.580826 
	C89.369637,90.145180 90.693481,87.025230 92.117149,83.827789 
	C92.346992,83.489449 92.300415,83.268661 92.085030,82.785332 
	C92.383438,81.959480 92.674080,81.436234 93.248474,80.715408 
	C94.595108,77.483879 95.657990,74.449928 96.710373,71.292282 
	C96.699875,71.168587 96.880463,70.998222 97.138191,70.750336 
	C97.922852,68.714600 98.449783,66.926743 99.001518,64.768005 
	C101.249901,59.207214 103.473480,54.017300 105.987015,48.684956 
	C106.863640,46.718403 107.450317,44.894279 108.020309,42.758247 
	C108.299774,41.917324 108.595917,41.388313 109.187241,40.687546 
	C111.795181,34.204582 114.107941,27.893373 116.446320,21.626139 
	C116.471947,21.670113 116.373940,21.642607 116.685097,21.462162 
	C117.864952,18.737961 118.733658,16.194206 119.613518,13.714197 
	C119.624680,13.777944 119.496376,13.794990 119.803299,13.610262 
	C120.857422,12.214814 121.479820,10.898135 122.390114,9.825861 
	C123.161278,8.917470 124.265366,8.291714 125.222137,7.540882 
	C125.820206,8.693638 126.418282,9.846395 127.013458,11.003748 
	C127.010559,11.008343 127.007027,11.019579 126.688950,11.144495 
	C123.931435,14.071608 121.343140,16.823446 123.059837,21.319014 
	C122.778221,22.089899 122.504333,22.575985 122.007484,23.330494 
	C121.562134,24.258684 121.339752,24.918449 121.163132,25.787838 
	C121.004044,26.359655 120.799187,26.721851 120.272728,27.298788 
	C119.386368,29.435472 118.821609,31.357416 118.256851,33.279358 
	C118.256851,33.279358 118.184395,33.099678 118.019577,33.346664 
	C117.616455,34.549908 117.378159,35.506165 117.139862,36.462425 
	C117.130844,36.806732 117.121834,37.151043 116.824959,37.957630 
	C115.151543,41.640854 113.765991,44.861797 112.326103,48.395027 
	C112.278183,49.128948 112.284607,49.550583 112.067963,50.266808 
	C110.872185,53.367134 109.899467,56.172871 108.926743,58.978607 
	C108.638794,59.159523 108.452385,59.414635 108.357758,59.985565 
	C103.294273,71.918182 98.240532,83.609192 92.896759,95.840103 
	C92.400475,96.626129 92.225601,96.892815 92.082115,97.180084 
	C92.082115,97.180084 92.106331,97.110832 91.896614,97.181961 
	C91.579788,97.884293 91.472679,98.515503 91.365570,99.146713 
	C91.286346,99.567780 91.207123,99.988846 90.801498,100.987282 
	C90.036102,102.930283 89.597107,104.295914 89.158112,105.661545 
	C89.158112,105.661545 89.335449,105.714256 89.048569,106.032036 
	C88.180916,108.235695 87.600143,110.121582 87.019379,112.007462 
z"/>
<path fill="#032328" opacity="1.000000" stroke="none" 
	d="
M122.230453,23.062073 
	C122.504333,22.575985 122.778221,22.089899 123.285629,21.047150 
	C124.681786,17.333519 125.844406,14.176549 127.007027,11.019579 
	C127.007027,11.019579 127.010559,11.008343 127.204239,10.954818 
	C127.397911,10.901293 127.777512,10.795131 127.906960,10.922623 
	C128.036407,11.050115 128.295059,11.305357 128.295059,11.305357 
	C128.454132,18.872032 124.624031,24.857735 120.249886,30.472404 
	C120.141510,29.150888 120.367920,28.117468 120.594330,27.084047 
	C120.799187,26.721851 121.004044,26.359655 121.426414,25.540985 
	C121.839439,24.410364 122.034943,23.736217 122.230453,23.062073 
z"/>
<path fill="#060409" opacity="1.000000" stroke="none" 
	d="
M112.291023,49.972218 
	C112.284607,49.550583 112.278183,49.128948 112.635330,48.286148 
	C114.699371,44.905743 116.399841,41.946503 118.100304,38.987259 
	C118.753448,40.084705 120.231918,41.667828 119.920227,42.197506 
	C118.377243,44.819580 116.361305,47.163334 113.966011,49.795143 
	C113.043633,49.980801 112.667328,49.976509 112.291023,49.972218 
z"/>
<path fill="#032328" opacity="1.000000" stroke="none" 
	d="
M117.954620,38.804916 
	C116.399841,41.946503 114.699371,44.905743 112.689682,47.973862 
	C113.765991,44.861797 115.151543,41.640854 116.822639,38.218685 
	C117.386528,38.167328 117.620110,38.369034 117.954620,38.804916 
z"/>
<path fill="#03161A" opacity="1.000000" stroke="none" 
	d="
M112.067963,50.266808 
	C112.667328,49.976509 113.043633,49.980801 113.701569,50.002609 
	C112.525314,52.949722 111.067436,55.879314 109.268150,58.893757 
	C109.899467,56.172871 110.872185,53.367134 112.067963,50.266808 
z"/>
<path fill="#032328" opacity="1.000000" stroke="none" 
	d="
M129.401535,4.656672 
	C129.192017,6.724994 128.982498,8.793317 128.534027,11.083498 
	C128.295059,11.305357 128.036407,11.050115 127.947037,10.559320 
	C128.209229,8.407773 128.560776,6.747021 129.034485,4.978706 
	C129.156647,4.871144 129.401535,4.656672 129.401535,4.656672 
z"/>
<path fill="#10B2A9" opacity="1.000000" stroke="none" 
	d="
M120.272728,27.298788 
	C120.367920,28.117468 120.141510,29.150888 119.925591,30.580484 
	C119.538910,31.637486 119.141747,32.298313 118.500717,33.119247 
	C118.821609,31.357416 119.386368,29.435472 120.272728,27.298788 
z"/>
<path fill="#032328" opacity="1.000000" stroke="none" 
	d="
M123.955116,4.755712 
	C125.425995,4.410360 126.896873,4.065010 128.697723,3.729550 
	C129.027710,3.739440 129.213547,4.199357 129.307541,4.428014 
	C129.401535,4.656672 129.156647,4.871144 128.620575,4.957865 
	C126.708054,4.948295 125.331581,4.852004 123.955116,4.755712 
z"/>
<path fill="#10B2A9" opacity="1.000000" stroke="none" 
	d="
M117.394577,36.188274 
	C117.378159,35.506165 117.616455,34.549908 118.109886,33.311630 
	C118.126442,33.991116 117.887863,34.952621 117.394577,36.188274 
z"/>
<path fill="#EA0C98" opacity="1.000000" stroke="none" 
	d="
M67.015320,130.802338 
	C65.865944,131.708618 64.716560,132.614899 63.238453,133.780365 
	C62.085484,132.259186 60.938122,130.745407 59.497108,129.094666 
	C58.153267,125.585289 57.103077,122.212860 55.960594,118.123444 
	C51.462296,106.107216 47.095428,94.792290 42.583450,83.535538 
	C42.178383,82.524956 40.834438,81.890694 39.926521,81.081665 
	C39.385006,79.627548 38.843487,78.173424 38.534142,76.197922 
	C38.062405,73.918526 37.358490,72.160507 36.654575,70.402489 
	C36.545883,70.066742 36.437187,69.730988 36.231438,68.880051 
	C35.823868,67.853134 35.513363,67.341415 35.202858,66.829697 
	C35.113846,66.432312 35.024834,66.034920 34.817471,65.026855 
	C33.799427,62.615639 32.899734,60.815113 32.000046,59.014584 
	C31.837181,58.454239 31.674316,57.893898 31.409786,56.706974 
	C24.811018,39.425713 18.313913,22.771030 11.417658,5.093167 
	C14.655072,5.093167 16.593596,5.093167 18.548742,5.433465 
	C19.055157,7.307648 19.544949,8.841533 20.017563,10.725187 
	C21.015882,13.352169 22.031378,15.629381 23.085152,17.927742 
	C23.123428,17.948893 23.082567,18.026226 23.070721,18.398560 
	C24.506721,22.122278 25.954569,25.473665 27.356743,28.811501 
	C27.311069,28.797951 27.342493,28.707998 27.287682,29.062103 
	C27.847759,30.594736 28.462650,31.773264 29.257357,33.172897 
	C29.583876,33.934586 29.730577,34.475174 29.753323,35.251732 
	C30.233683,36.628761 30.838003,37.769817 31.676292,39.220371 
	C42.888081,67.122742 53.894714,94.704247 64.798164,122.326477 
	C65.862686,125.023293 66.291451,127.971054 67.015320,130.802338 
z"/>
<path fill="#050203" opacity="1.000000" stroke="none" 
	d="
M23.000122,47.999542 
	C21.745844,47.097237 20.491568,46.194927 19.237293,45.292622 
	C19.525873,44.890396 19.814453,44.488171 20.103033,44.085941 
	C19.825272,43.939686 19.552940,43.677292 19.268963,43.664013 
	C10.160089,43.238140 9.795825,42.896149 12.536506,34.461765 
	C13.482772,31.549650 13.664652,29.433441 11.661839,26.730745 
	C10.653680,25.370285 11.681776,22.500870 12.342628,20.315075 
	C16.997606,28.807001 21.099035,37.297653 24.984085,46.018250 
	C24.178511,46.831974 23.589317,47.415760 23.000122,47.999542 
z"/>
<path fill="#41092C" opacity="1.000000" stroke="none" 
	d="
M25.200464,45.788307 
	C21.099035,37.297653 16.997606,28.807001 12.653995,20.108881 
	C12.361678,19.476950 12.311545,19.052485 12.243118,18.307636 
	C11.244090,13.919707 10.263357,9.852163 9.299067,5.426345 
	C12.529016,4.721206 15.742519,4.374342 18.976223,4.504226 
	C18.996424,4.980973 18.532118,5.093167 18.532118,5.093167 
	C16.593596,5.093167 14.655072,5.093167 11.417658,5.093167 
	C18.313913,22.771030 24.811018,39.425713 31.248466,56.462418 
	C30.991600,56.886414 30.794388,56.928383 30.178818,56.696098 
	C28.932615,55.558681 28.104771,54.695526 27.276928,53.832371 
	C27.176701,52.495731 27.076473,51.159088 26.833675,49.129745 
	C26.194223,47.554134 25.697344,46.671219 25.200464,45.788307 
z"/>
<path fill="#6B0240" opacity="1.000000" stroke="none" 
	d="
M39.932442,81.460716 
	C40.834438,81.890694 42.178383,82.524956 42.583450,83.535538 
	C47.095428,94.792290 51.462296,106.107216 55.799480,117.784500 
	C54.052578,114.971634 52.134136,111.881706 50.742851,108.570297 
	C47.020561,99.710869 43.524384,90.756447 39.932442,81.460716 
z"/>
<path fill="#090207" opacity="1.000000" stroke="none" 
	d="
M27.032890,54.061783 
	C28.104771,54.695526 28.932615,55.558681 29.876781,56.711742 
	C28.809134,57.459976 27.625162,57.918308 25.171034,58.868332 
	C25.955334,56.649387 26.372093,55.470291 27.032890,54.061783 
z"/>
<path fill="#41092C" opacity="1.000000" stroke="none" 
	d="
M31.801733,59.202980 
	C32.899734,60.815113 33.799427,62.615639 34.664108,64.761414 
	C33.967731,64.797813 33.306370,64.488983 32.370598,63.716591 
	C31.789242,62.492222 31.482300,61.731415 31.175358,60.970604 
	C31.318045,60.444195 31.460732,59.917789 31.801733,59.202980 
z"/>
<path fill="#090207" opacity="1.000000" stroke="none" 
	d="
M30.880383,61.090294 
	C31.482300,61.731415 31.789242,62.492222 32.137814,63.560829 
	C31.328583,63.859459 30.477724,63.850292 29.626865,63.841125 
	C29.946379,62.964077 30.265894,62.087032 30.880383,61.090294 
z"/>
<path fill="#41092C" opacity="1.000000" stroke="none" 
	d="
M36.538681,70.730103 
	C37.358490,72.160507 38.062405,73.918526 38.493584,75.848785 
	C37.621494,74.366585 37.022141,72.712151 36.538681,70.730103 
z"/>
<path fill="#090207" opacity="1.000000" stroke="none" 
	d="
M24.984085,46.018250 
	C25.697344,46.671219 26.194223,47.554134 26.760290,48.733841 
	C25.741936,48.809334 24.654390,48.588039 23.283484,48.183144 
	C23.589317,47.415760 24.178511,46.831974 24.984085,46.018250 
z"/>
<path fill="#41092C" opacity="1.000000" stroke="none" 
	d="
M35.065872,67.050400 
	C35.513363,67.341415 35.823868,67.853134 36.068321,68.669106 
	C35.644474,68.405937 35.286678,67.838524 35.065872,67.050400 
z"/>
<path fill="#E80F9A" opacity="1.000000" stroke="none" 
	d="
M91.024315,5.009873 
	C92.044746,4.919095 93.065186,4.828316 94.804413,4.825144 
	C95.995705,4.860540 96.468208,4.808329 96.940704,4.756118 
	C96.940704,4.756118 97.177727,4.891493 97.168335,5.415900 
	C89.716225,27.579178 82.273506,49.218048 74.591385,70.545273 
	C73.344620,67.240425 72.337257,64.247231 71.535461,60.950558 
	C74.396454,52.382256 77.051872,44.117435 79.837143,35.554222 
	C80.137154,34.628387 80.307304,34.000946 80.738281,33.143223 
	C81.590034,30.897802 82.180969,28.882666 82.897522,26.579288 
	C83.204529,25.688946 83.385918,25.086845 83.821838,24.255520 
	C84.430855,22.722979 84.785339,21.419662 85.289551,19.782314 
	C85.528938,18.732506 85.618599,18.016729 85.708260,17.300955 
	C86.021805,16.789221 86.335342,16.277487 86.978607,15.284788 
	C88.546997,11.539174 89.785660,8.274524 91.024315,5.009873 
z"/>
<path fill="#080205" opacity="1.000000" stroke="none" 
	d="
M57.870613,18.054306 
	C59.139927,17.314762 60.409245,16.575220 60.751766,16.375656 
	C63.505806,18.804964 65.995804,20.793936 68.208099,23.054670 
	C69.095764,23.961769 70.016937,25.580202 69.822258,26.680061 
	C68.666756,33.208328 70.424759,38.799934 74.876465,44.299290 
	C73.786697,48.574181 72.393578,52.340393 70.713699,56.061508 
	C70.041763,55.987507 69.656586,55.958607 69.106331,55.621998 
	C68.613228,54.211784 68.285202,53.109280 68.141411,51.719494 
	C68.448715,50.952785 68.794998,50.397652 68.661880,50.005100 
	C66.006310,42.174046 63.312817,34.355545 60.534100,26.567648 
	C60.418865,26.244671 59.401485,26.243582 58.669704,25.894573 
	C58.390743,25.401739 58.334549,25.090944 58.447723,24.347702 
	C58.309555,21.972221 58.090084,20.013264 57.870613,18.054306 
z"/>
<path fill="#080205" opacity="1.000000" stroke="none" 
	d="
M83.567307,24.484745 
	C83.385918,25.086845 83.204529,25.688946 82.570160,26.713203 
	C81.570610,29.214743 81.024033,31.294125 80.477455,33.373508 
	C80.307304,34.000946 80.137154,34.628387 79.563950,35.638042 
	C78.354103,36.770927 77.547310,37.521599 76.740509,38.272274 
	C75.947586,37.134453 74.371780,35.903057 74.494690,34.874699 
	C75.086998,29.919266 76.137169,25.018562 77.170448,19.291588 
	C78.110733,18.910738 80.214676,18.058569 82.699982,17.443419 
	C83.422379,18.472528 83.763412,19.264620 84.016541,20.424908 
	C83.808189,22.023649 83.687752,23.254198 83.567307,24.484745 
z"/>
<path fill="#5A0239" opacity="1.000000" stroke="none" 
	d="
M76.678421,38.640720 
	C77.547310,37.521599 78.354103,36.770927 79.434097,35.936440 
	C77.051872,44.117435 74.396454,52.382256 71.299179,60.703613 
	C70.774796,60.547863 70.692276,60.335567 70.705116,59.728317 
	C70.867134,58.257774 70.933792,57.182186 71.000450,56.106602 
	C72.393578,52.340393 73.786697,48.574181 75.222153,44.425819 
	C75.715088,42.365501 76.165710,40.687332 76.678421,38.640720 
z"/>
<path fill="#5A0239" opacity="1.000000" stroke="none" 
	d="
M90.669853,4.956848 
	C89.785660,8.274524 88.546997,11.539174 87.043243,14.986347 
	C86.408142,14.619487 86.038132,14.070104 85.553772,12.937574 
	C85.475014,11.973483 85.510628,11.592539 85.546234,11.211594 
	C86.417931,9.476547 87.289635,7.741501 88.189552,5.654918 
	C88.916977,5.170196 89.616188,5.037009 90.669853,4.956848 
z"/>
<path fill="#031F23" opacity="1.000000" stroke="none" 
	d="
M57.708748,17.890362 
	C58.090084,20.013264 58.309555,21.972221 58.192986,24.096439 
	C56.911339,21.503885 55.965729,18.746071 55.020119,15.988256 
	C55.515610,16.234161 56.011097,16.480064 56.750877,16.856394 
	C57.157562,17.249397 57.341469,17.495930 57.708748,17.890362 
z"/>
<path fill="#080205" opacity="1.000000" stroke="none" 
	d="
M85.185081,11.178885 
	C85.510628,11.592539 85.475014,11.973483 85.398468,12.636494 
	C84.325012,12.755699 83.292488,12.592839 82.259964,12.429979 
	C82.255280,12.163406 82.250603,11.896834 82.245918,11.630261 
	C83.105255,11.468900 83.964584,11.307538 85.185081,11.178885 
z"/>
<path fill="#0F0211" opacity="1.000000" stroke="none" 
	d="
M84.104446,20.056713 
	C83.763412,19.264620 83.422379,18.472528 83.051132,17.352999 
	C83.619537,17.072903 84.218155,17.120245 85.262520,17.234270 
	C85.618599,18.016729 85.528938,18.732506 85.031754,19.749527 
	C84.450974,20.052753 84.277710,20.054733 84.104446,20.056713 
z"/>
<path fill="#F7F9FC" opacity="1.000000" stroke="none" 
	d="
M74.830780,70.856918 
	C82.273506,49.218048 89.716225,27.579178 97.160980,5.552181 
	C105.173538,5.065186 113.184074,4.966316 121.733795,5.305784 
	C121.347450,8.427745 120.421913,11.111367 119.496376,13.794990 
	C119.496376,13.794990 119.624680,13.777944 119.370102,13.967682 
	C118.201660,16.652483 117.287796,19.147545 116.373940,21.642607 
	C116.373940,21.642607 116.471947,21.670113 116.232590,21.901752 
	C113.626175,28.375360 111.259117,34.617332 108.892059,40.859303 
	C108.595917,41.388313 108.299774,41.917324 107.785820,43.009521 
	C106.944359,45.324268 106.320709,47.075825 105.697060,48.827385 
	C103.473480,54.017300 101.249901,59.207214 98.826218,65.054001 
	C98.044220,67.473312 97.462341,69.235771 96.880463,70.998222 
	C96.880463,70.998222 96.699875,71.168587 96.445503,71.546906 
	C95.115662,74.921143 94.040192,77.917068 92.964722,80.912987 
	C92.674080,81.436234 92.383438,81.959480 91.965157,82.846420 
	C91.706047,83.499313 91.765984,83.731041 92.017319,83.905289 
	C90.693481,87.025230 89.369637,90.145180 87.586754,93.768661 
	C87.014984,95.144318 86.902252,96.016434 86.789513,96.888550 
	C86.789513,96.888550 86.860184,96.883797 86.572014,97.073349 
	C85.224915,100.159164 84.165993,103.055420 83.107063,105.951683 
	C82.881088,106.336357 82.655121,106.721039 82.241425,107.594147 
	C81.895599,108.354790 81.860596,108.642006 81.948692,108.944229 
	C81.948692,108.944229 81.708275,109.072456 81.486290,109.469482 
	C80.291359,112.444656 79.318420,115.022812 78.345482,117.600960 
	C78.345482,117.600960 78.506348,117.719467 78.238098,117.908432 
	C77.581116,119.383537 77.192390,120.669662 76.803673,121.955795 
	C76.803673,121.955795 76.637657,122.096771 76.441902,122.453072 
	C75.475426,124.922913 74.704704,127.036453 73.933990,129.149994 
	C72.539970,130.507843 71.145958,131.865692 69.394745,133.115265 
	C68.564789,132.347198 68.092026,131.687408 67.317291,130.914978 
	C66.291451,127.971054 65.862686,125.023293 64.798164,122.326477 
	C53.894714,94.704247 42.888081,67.122742 31.667278,38.924526 
	C30.908625,37.218040 30.392952,36.116901 29.877279,35.015759 
	C29.730577,34.475174 29.583876,33.934586 29.269634,32.836720 
	C28.515562,31.088959 27.929028,29.898478 27.342493,28.707998 
	C27.342493,28.707998 27.311069,28.797951 27.314262,28.424992 
	C25.905827,24.710096 24.494198,21.368160 23.082567,18.026226 
	C23.082567,18.026226 23.123428,17.948893 23.075823,17.570847 
	C22.030392,14.920338 21.032566,12.647878 20.034739,10.375417 
	C19.544949,8.841533 19.055157,7.307648 18.548742,5.433465 
	C18.532118,5.093167 18.996424,4.980973 19.175343,4.819051 
	C27.197342,4.732896 35.040424,4.808664 43.380165,5.321401 
	C44.764259,7.881076 45.651699,10.003781 46.567558,12.098909 
	C46.595982,12.071333 46.535236,12.022177 46.536034,12.431340 
	C46.972939,13.796550 47.409042,14.752595 47.780090,15.814573 
	C47.715031,15.920506 47.924461,16.054501 47.935814,16.297476 
	C47.947166,16.540451 48.201740,16.955008 48.193268,17.305277 
	C48.800320,19.147066 49.415840,20.638586 50.048344,22.491730 
	C51.635647,26.985405 53.205967,31.117456 54.782295,35.207642 
	C54.788303,35.165771 54.704159,35.157051 54.727627,35.513538 
	C55.463303,37.588913 56.175510,39.307804 56.872314,41.417374 
	C61.288300,54.544979 65.719681,67.281906 70.686798,81.558655 
	C72.427574,77.063133 73.629181,73.960022 74.830780,70.856918 
z"/>
<path fill="#0EB2A9" opacity="1.000000" stroke="none" 
	d="
M74.212257,129.348892 
	C74.704704,127.036453 75.475426,124.922913 76.510498,122.537643 
	C76.637665,123.750130 76.526237,125.237282 76.357704,126.717934 
	C76.046997,129.447525 77.456490,129.894135 80.045372,129.194290 
	C79.419365,130.378937 78.443420,131.651794 77.467476,132.924652 
	C76.475159,131.799026 75.482841,130.673416 74.212257,129.348892 
z"/>
<path fill="#0EB2A9" opacity="1.000000" stroke="none" 
	d="
M81.358528,126.794891 
	C82.642860,122.867500 84.170486,118.687881 85.973862,114.298920 
	C84.700348,118.240608 83.151085,122.391632 81.358528,126.794891 
z"/>
<path fill="#0EB2A9" opacity="1.000000" stroke="none" 
	d="
M87.276138,111.754135 
	C87.600143,110.121582 88.180916,108.235695 89.023346,106.121033 
	C88.700966,107.761765 88.116928,109.631287 87.276138,111.754135 
z"/>
<path fill="#0EB2A9" opacity="1.000000" stroke="none" 
	d="
M89.440979,105.404510 
	C89.597107,104.295914 90.036102,102.930283 90.706184,101.294281 
	C90.532791,102.398430 90.128319,103.772949 89.440979,105.404510 
z"/>
<path fill="#0EB2A9" opacity="1.000000" stroke="none" 
	d="
M91.631889,99.008820 
	C91.472679,98.515503 91.579788,97.884293 91.930939,97.194916 
	C92.082718,97.714798 91.990463,98.292862 91.631889,99.008820 
z"/>
<path fill="#0EB2A9" opacity="1.000000" stroke="none" 
	d="
M92.339264,97.086548 
	C92.225601,96.892815 92.400475,96.626129 92.769119,96.204742 
	C92.819817,96.350647 92.708115,96.671822 92.339264,97.086548 
z"/>
<path fill="#10AEA6" opacity="1.000000" stroke="none" 
	d="
M46.539139,12.126486 
	C45.651699,10.003781 44.764259,7.881076 43.829540,5.398365 
	C45.871544,5.026747 47.960827,5.015133 50.493340,5.036345 
	C50.936565,5.069170 50.869041,5.063501 50.904518,5.434744 
	C51.619801,7.210916 52.299603,8.615846 52.979404,10.020775 
	C53.051788,10.474041 53.124172,10.927307 53.315533,11.907553 
	C53.494297,12.745158 53.670269,12.961183 53.962418,13.082605 
	C54.182129,13.887422 54.401836,14.692238 54.820831,15.742655 
	C55.965729,18.746071 56.911339,21.503885 58.111687,24.512962 
	C58.334549,25.090944 58.390743,25.401739 58.635693,26.285048 
	C59.236084,28.888645 59.735786,30.903807 59.901665,32.793102 
	C59.117977,32.203499 58.452530,31.818062 58.251316,31.264025 
	C56.018940,25.117329 53.913998,18.923975 51.645191,12.791111 
	C50.952705,10.919234 49.863029,9.194295 48.955254,7.402063 
	C48.541161,7.461918 48.127068,7.521773 47.712975,7.581628 
	C47.321693,9.096581 46.930416,10.611533 46.539139,12.126486 
z"/>
<path fill="#10B2A9" opacity="1.000000" stroke="none" 
	d="
M119.803299,13.610262 
	C120.421913,11.111367 121.347450,8.427745 122.208961,5.359578 
	C122.546356,4.939876 122.947769,4.904718 123.652153,4.812637 
	C125.331581,4.852004 126.708054,4.948295 128.498428,5.065428 
	C128.560776,6.747021 128.209229,8.407773 127.817596,10.431828 
	C127.777512,10.795131 127.397911,10.901293 127.207138,10.950223 
	C126.418282,9.846395 125.820206,8.693638 125.222137,7.540882 
	C124.265366,8.291714 123.161278,8.917470 122.390114,9.825861 
	C121.479820,10.898135 120.857422,12.214814 119.803299,13.610262 
z"/>
<path fill="#5A0239" opacity="1.000000" stroke="none" 
	d="
M96.972595,4.503992 
	C96.468208,4.808329 95.995705,4.860540 95.184448,4.770007 
	C95.351898,4.209036 95.858101,3.790809 96.611496,3.312350 
	C96.907288,3.585366 96.955887,3.918616 96.972595,4.503992 
z"/>
<path fill="#031F23" opacity="1.000000" stroke="none" 
	d="
M53.141403,9.762859 
	C52.299603,8.615846 51.619801,7.210916 50.903198,5.468607 
	C51.678730,6.589133 52.491070,8.047038 53.141403,9.762859 
z"/>
<path fill="#031F23" opacity="1.000000" stroke="none" 
	d="
M53.956108,12.876702 
	C53.670269,12.961183 53.494297,12.745158 53.463379,12.220321 
	C53.732590,12.167206 53.885105,12.388769 53.956108,12.876702 
z"/>
<path fill="#10B2A9" opacity="1.000000" stroke="none" 
	d="
M109.187241,40.687546 
	C111.259117,34.617332 113.626175,28.375360 116.206963,21.857777 
	C114.107941,27.893373 111.795181,34.204582 109.187241,40.687546 
z"/>
<path fill="#10B2A9" opacity="1.000000" stroke="none" 
	d="
M126.688950,11.144495 
	C125.844406,14.176549 124.681786,17.333519 123.293365,20.762352 
	C121.343140,16.823446 123.931435,14.071608 126.688950,11.144495 
z"/>
<path fill="#0EB2A9" opacity="1.000000" stroke="none" 
	d="
M83.440414,105.847733 
	C84.165993,103.055420 85.224915,100.159164 86.559021,97.040398 
	C85.814064,99.793190 84.793915,102.768486 83.440414,105.847733 
z"/>
<path fill="#31B7B3" opacity="1.000000" stroke="none" 
	d="
M93.248474,80.715408 
	C94.040192,77.917068 95.115662,74.921143 96.456001,71.670593 
	C95.657990,74.449928 94.595108,77.483879 93.248474,80.715408 
z"/>
<path fill="#0EB2A9" opacity="1.000000" stroke="none" 
	d="
M78.684494,117.449020 
	C79.318420,115.022812 80.291359,112.444656 81.536102,109.596283 
	C80.879768,111.983063 79.951637,114.640068 78.684494,117.449020 
z"/>
<path fill="#10B2A9" opacity="1.000000" stroke="none" 
	d="
M116.685097,21.462162 
	C117.287796,19.147545 118.201660,16.652483 119.358932,13.903935 
	C118.733658,16.194206 117.864952,18.737961 116.685097,21.462162 
z"/>
<path fill="#10B2A9" opacity="1.000000" stroke="none" 
	d="
M105.987015,48.684956 
	C106.320709,47.075825 106.944359,45.324268 107.802505,43.321434 
	C107.450317,44.894279 106.863640,46.718403 105.987015,48.684956 
z"/>
<path fill="#0EB2A9" opacity="1.000000" stroke="none" 
	d="
M77.140411,121.803841 
	C77.192390,120.669662 77.581116,119.383537 78.178169,117.828506 
	C78.083382,118.923698 77.780266,120.287788 77.140411,121.803841 
z"/>
<path fill="#31B7B3" opacity="1.000000" stroke="none" 
	d="
M97.138191,70.750336 
	C97.462341,69.235771 98.044220,67.473312 98.801407,65.424873 
	C98.449783,66.926743 97.922852,68.714600 97.138191,70.750336 
z"/>
<path fill="#0EB2A9" opacity="1.000000" stroke="none" 
	d="
M87.043945,96.756531 
	C86.902252,96.016434 87.014984,95.144318 87.401405,94.084366 
	C87.549522,94.805855 87.423943,95.715187 87.043945,96.756531 
z"/>
<path fill="#31B7B3" opacity="1.000000" stroke="none" 
	d="
M92.117149,83.827789 
	C91.765984,83.731041 91.706047,83.499313 91.957382,83.149025 
	C92.300415,83.268661 92.346992,83.489449 92.117149,83.827789 
z"/>
<path fill="#0EB2A9" opacity="1.000000" stroke="none" 
	d="
M82.116264,108.894188 
	C81.860596,108.642006 81.895599,108.354790 82.215706,107.930870 
	C82.457390,108.039909 82.567780,108.297165 82.598160,108.563538 
	C82.607346,108.644073 82.394806,108.749901 82.116264,108.894188 
z"/>
<path fill="#10B2A9" opacity="1.000000" stroke="none" 
	d="
M122.007477,23.330494 
	C122.034943,23.736217 121.839439,24.410364 121.380646,25.331364 
	C121.339752,24.918449 121.562134,24.258684 122.007477,23.330494 
z"/>
<path fill="#DD2A9A" opacity="1.000000" stroke="none" 
	d="
M23.070721,18.398560 
	C24.494198,21.368160 25.905827,24.710096 27.359936,28.438541 
	C25.954569,25.473665 24.506721,22.122278 23.070721,18.398560 
z"/>
<path fill="#DD2A9A" opacity="1.000000" stroke="none" 
	d="
M20.017563,10.725187 
	C21.032566,12.647878 22.030392,14.920338 23.037544,17.549696 
	C22.031378,15.629381 21.015882,13.352169 20.017563,10.725187 
z"/>
<path fill="#DD2A9A" opacity="1.000000" stroke="none" 
	d="
M29.753323,35.251732 
	C30.392952,36.116901 30.908625,37.218040 31.433310,38.615028 
	C30.838003,37.769817 30.233683,36.628761 29.753323,35.251732 
z"/>
<path fill="#DD2A9A" opacity="1.000000" stroke="none" 
	d="
M27.287682,29.062103 
	C27.929028,29.898478 28.515562,31.088959 29.089817,32.615616 
	C28.462650,31.773264 27.847759,30.594736 27.287682,29.062103 
z"/>
<path fill="#16B1B3" opacity="1.000000" stroke="none" 
	d="
M74.591385,70.545273 
	C73.629181,73.960022 72.427574,77.063133 70.686798,81.558655 
	C65.719681,67.281906 61.288300,54.544979 57.073318,41.160484 
	C57.551407,39.691528 57.813095,38.870144 58.390465,38.037659 
	C59.127064,38.012196 59.547985,37.997833 60.328957,37.981201 
	C61.168594,37.967754 61.648190,37.956581 62.347950,38.227188 
	C64.364471,43.008240 66.160828,47.507507 67.957176,52.006771 
	C68.285202,53.109280 68.613228,54.211784 69.068665,55.946362 
	C69.667297,57.760048 70.138527,58.941662 70.609756,60.123276 
	C70.692276,60.335567 70.774796,60.547863 71.093605,61.007095 
	C72.337257,64.247231 73.344620,67.240425 74.591385,70.545273 
z"/>
<path fill="#5A0239" opacity="1.000000" stroke="none" 
	d="
M80.738281,33.143223 
	C81.024033,31.294125 81.570610,29.214743 82.444550,27.001446 
	C82.180969,28.882666 81.590034,30.897802 80.738281,33.143223 
z"/>
<path fill="#5A0239" opacity="1.000000" stroke="none" 
	d="
M84.016541,20.424906 
	C84.277710,20.054733 84.450974,20.052753 84.882019,20.083561 
	C84.785339,21.419662 84.430855,22.722979 83.821846,24.255520 
	C83.687752,23.254198 83.808189,22.023649 84.016541,20.424906 
z"/>
<path fill="#031F23" opacity="1.000000" stroke="none" 
	d="
M68.141411,51.719494 
	C66.160828,47.507507 64.364471,43.008240 62.343628,37.900986 
	C61.769096,36.520344 61.419052,35.747700 61.058319,34.686028 
	C60.776920,33.904327 60.506210,33.411648 60.235497,32.918968 
	C59.735786,30.903807 59.236084,28.888645 58.770390,26.483006 
	C59.401485,26.243582 60.418865,26.244671 60.534100,26.567648 
	C63.312817,34.355545 66.006310,42.174046 68.661880,50.005100 
	C68.794998,50.397652 68.448715,50.952785 68.141411,51.719494 
z"/>
<path fill="#031F23" opacity="1.000000" stroke="none" 
	d="
M70.705116,59.728317 
	C70.138527,58.941662 69.667297,57.760048 69.233734,56.254070 
	C69.656586,55.958607 70.041763,55.987507 70.713699,56.061508 
	C70.933792,57.182186 70.867134,58.257774 70.705116,59.728317 
z"/>
<path fill="#12BBB9" opacity="1.000000" stroke="none" 
	d="
M59.901665,32.793102 
	C60.506210,33.411648 60.776920,33.904327 60.859642,34.945030 
	C60.437405,36.323193 60.203156,37.153332 59.968906,37.983475 
	C59.547985,37.997833 59.127064,38.012196 58.160679,37.805923 
	C56.644863,36.775879 55.674511,35.966465 54.704159,35.157051 
	C54.704159,35.157051 54.788303,35.165771 54.823830,34.785721 
	C54.178288,30.911436 53.637722,27.379210 52.710751,23.951477 
	C52.496887,23.160656 50.959625,22.727728 50.031364,22.130104 
	C49.415840,20.638586 48.800320,19.147066 48.213051,17.179333 
	C48.236423,16.442371 48.130806,16.226166 47.924461,16.054501 
	C47.924461,16.054501 47.715031,15.920506 47.780716,15.405628 
	C47.409348,13.934559 46.972294,12.978368 46.535240,12.022177 
	C46.535236,12.022177 46.595982,12.071333 46.567558,12.098909 
	C46.930416,10.611533 47.321693,9.096581 47.712975,7.581628 
	C48.127068,7.521773 48.541161,7.461918 48.955254,7.402063 
	C49.863029,9.194295 50.952705,10.919234 51.645191,12.791111 
	C53.913998,18.923975 56.018940,25.117329 58.251316,31.264025 
	C58.452530,31.818062 59.117977,32.203499 59.901665,32.793102 
z"/>
<path fill="#10AEA6" opacity="1.000000" stroke="none" 
	d="
M50.048347,22.491730 
	C50.959625,22.727728 52.496887,23.160656 52.710751,23.951477 
	C53.637722,27.379210 54.178288,30.911436 54.817825,34.827587 
	C53.205967,31.117456 51.635647,26.985405 50.048347,22.491730 
z"/>
<path fill="#10AEA6" opacity="1.000000" stroke="none" 
	d="
M54.727627,35.513538 
	C55.674511,35.966465 56.644863,36.775879 57.845001,37.817024 
	C57.813095,38.870144 57.551407,39.691528 57.088715,40.769802 
	C56.175510,39.307804 55.463303,37.588913 54.727627,35.513538 
z"/>
<path fill="#10AEA6" opacity="1.000000" stroke="none" 
	d="
M46.536037,12.431339 
	C46.972294,12.978368 47.409348,13.934559 47.845772,15.299696 
	C47.409042,14.752595 46.972939,13.796550 46.536037,12.431339 
z"/>
<path fill="#10AEA6" opacity="1.000000" stroke="none" 
	d="
M47.935814,16.297476 
	C48.130806,16.226166 48.236423,16.442371 48.221523,16.829063 
	C48.201740,16.955008 47.947166,16.540451 47.935814,16.297476 
z"/>
<path fill="#10AEA6" opacity="1.000000" stroke="none" 
	d="
M60.328957,37.981201 
	C60.203156,37.153332 60.437405,36.323193 60.870331,35.234051 
	C61.419052,35.747700 61.769096,36.520344 62.123459,37.619198 
	C61.648190,37.956581 61.168594,37.967754 60.328957,37.981201 
z"/>
</svg>