<svg xmlns="http://www.w3.org/2000/svg" xml:space="preserve" width="128" height="128" data-id="lg_SlDxyqmnSW2q1PrD9D" data-version="1"><g data-padding="20"><g transform="translate(54.068 54.068)scale(.17736)"><path fill="#fff" stroke="transparent" d="M-182.55 213.225q-7.47 0-14.89-1.98t-12.75-6.18q-11.33-8.83-11.33-26.16v-8.61l31.44-4.31v8.72q0 7.88 4.7 10.14 2.83 1.42 5.78-.11 1.47-.79 2.6-2.27 2.49-3.17 2.49-8.1v-53.8h36.08v43.72q0 34.16-20.95 44.47-8.95 4.41-23.17 4.47m105.29-52.57q-1.14-.57-2.92-.57t-3.94 1.05q-2.15 1.05-4.24 2.86-4.42 3.85-7.42 9.34-3.01 5.5-3.01 10.12 0 4.61 3.51 6.2 1.25.56 3.06.56 1.82 0 3.8-1.1 1.98-1.11 3.96-2.97 4.14-3.91 7.25-9.49 3.12-5.58 3.12-10t-3.17-6m-10.99 52.45q-16.2 0-27.93-10.26-12.51-10.87-12.51-27.38t11.72-27.02q11.73-10.51 28.94-10.51 17.22 0 28.95 10.28 11.72 10.29 11.78 27.5.06 11.05-5.61 19.54-5.66 8.5-15.12 13.15-9.46 4.64-20.22 4.7m85.76-97.43v32.46q7.65-10.2 23.17-10.2 4.42 0 9.4 2.04 4.99 2.04 8.67 5.89 7.93 8.22 7.93 21.75v43.39H12.81v-30.53q0-9.12-2.95-14.98t-6.91-5.86q-5.44 0-5.44 7.42v43.95h-33.64v-95.33Zm100.53 44.08q-4.53 0-4.53 7.31v43.95H59.86v-70.4h18.58l8.1 10.98q4.53-6.28 12.55-9.96 8.01-3.69 14.98-3.69 12.8 0 20.3 6.8 7.51 6.8 7.51 18.24v48.03h-33.87v-33.98q0-17.28-9.97-17.28m95.21 0q-4.53 0-4.53 7.31v43.95h-33.64v-70.4h18.57l8.1 10.98q4.54-6.28 12.55-9.96 8.01-3.69 14.98-3.69 12.8 0 20.31 6.8 7.5 6.8 7.5 18.24v48.03h-33.87v-33.98q0-17.28-9.97-17.28m58.34 69.83v-20.11q6.01 1.64 15.07 1.64 5.72 0 7.65-4.87.56-1.47.56-3.06 0-1.58-.56-3.34l-29.12-59.24h33.76l12.18 27.24 11.38-27.24h29.68l-26.45 65.76q-5.27 12.85-11.61 18.97-7.76 7.48-19.15 7.48-15.57 0-23.39-3.23"/><rect width="560" height="131.08" x="-625" y="-409.315" fill="none" rx="0" ry="0" transform="translate(401 528.48)"/><path fill="#e8c900" stroke="transparent" d="m-161.91 323.425-2.81 4.22q.51.64 1.63 1.38 1.12.73 2.69 1.28 1.56.54 3.23.54 2.24 0 4.06-.61 1.83-.6 3.11-1.88t1.95-3.2.67-4.55v-48.64h-5.12v48q0 3.14-1.44 4.45t-2.91 1.31q-1.73 0-3.04-.61-1.31-.6-2.02-1.69m63.87-29.06q0-5.05 2.21-9.02t6.05-6.27q3.84-2.31 8.7-2.31 4.93 0 8.74 2.31 3.81 2.3 6.02 6.27 2.2 3.97 2.2 9.02 0 5.06-2.2 9.03-2.21 3.96-6.02 6.27-3.81 2.3-8.74 2.3-4.86 0-8.7-2.3-3.84-2.31-6.05-6.27-2.21-3.97-2.21-9.03m-5.76 0q0 4.87 1.7 9.09t4.77 7.33q3.07 3.1 7.23 4.86t9.02 1.76q4.93 0 9.06-1.76t7.2-4.86q3.07-3.11 4.77-7.33 1.69-4.22 1.69-9.09 0-4.93-1.69-9.12-1.7-4.19-4.77-7.29-3.07-3.11-7.2-4.87t-9.06-1.76q-4.86 0-9.02 1.76t-7.23 4.87q-3.07 3.1-4.77 7.29t-1.7 9.12m92.04-4.48v5.12h30.72v-5.12Zm32.51-17.92h-5.44v44.8h5.44Zm-30.08 0h-5.44v44.8h5.44Zm115.58 0h-5.44v33.35l-33.92-35.59v47.04h5.44v-33.34l33.92 35.58Zm85.51 0h-5.44v33.35l-33.92-35.59v47.04h5.44v-33.34l33.92 35.58Zm76.6 0h-6.08l-11.58 20.74-11.52-20.74h-6.08l14.91 25.54v19.26h5.44v-19.33Z"/><rect width="429.34" height="72.32" x="-559.67" y="-379.935" fill="none" rx="0" ry="0" transform="translate(401 643.65)"/><path fill="#eade8e" d="M1.308 76.565h109.084a3.023 3.023 0 1 0 0-6.045h-7.882v-204.241a46.56 46.56 0 0 0-12.225-31.497 35.4 35.4 0 0 0-9.986-16.399 25.05 25.05 0 0 0-10.521-16.3v-12.19a13.961 13.961 0 0 0-27.856 0v12.19a25.05 25.05 0 0 0-10.52 16.3 35.4 35.4 0 0 0-9.987 16.4A46.76 46.76 0 0 0 9.19-133.756V70.486H1.308a3.04 3.04 0 1 0 0 6.079"/></g><path fill="transparent" stroke="transparent" stroke-width=".184" d="M12.5 12.5h103v103h-103z"/></g></svg>